<svg width="45" height="45" viewBox="0 0 45 45" fill="none" xmlns="http://www.w3.org/2000/svg">
<g id="arrow_back_FILL0_wght500_GRAD0_opsz40 1">
<path id="Vector" d="M20.5303 36.3839L7.87843 23.7432C7.69433 23.5591 7.56221 23.3642 7.48205 23.1585C7.40189 22.9527 7.36182 22.7332 7.36182 22.5C7.36182 22.2667 7.40189 22.0473 7.48205 21.8415C7.56221 21.6358 7.69433 21.4409 7.87843 21.2568L20.5615 8.57372C20.8901 8.24512 21.2946 8.08009 21.775 8.07862C22.2554 8.07715 22.6731 8.25384 23.0279 8.60869C23.3828 8.96059 23.5628 9.37612 23.568 9.85528C23.5732 10.3344 23.3984 10.7514 23.0435 11.1063L13.4328 20.7245H35.1475C35.6527 20.7245 36.0749 20.8941 36.4141 21.2333C36.7533 21.5726 36.923 21.9948 36.923 22.5C36.923 23.0052 36.7533 23.4274 36.4141 23.7667C36.0749 24.1059 35.6527 24.2755 35.1475 24.2755H13.4328L23.0748 33.9249C23.4033 34.2535 23.569 34.6588 23.5717 35.1406C23.5744 35.6225 23.3984 36.0369 23.0435 36.3839C22.6916 36.7437 22.2735 36.9236 21.7891 36.9236C21.3047 36.9236 20.8851 36.7437 20.5303 36.3839Z" fill="#D5A530"/>
</g>
</svg>
