<svg width="11" height="23" viewBox="0 0 11 23" fill="none" xmlns="http://www.w3.org/2000/svg">
<path id="Vector" d="M0.458578 22.0121C0.177192 21.6406 0.0319599 21.2086 0.0228838 20.716C0.0138349 20.2234 0.159067 19.802 0.458578 19.4518L7.23079 11.5317L0.431389 3.57984C0.150004 3.25076 0.0138349 2.82404 0.0228838 2.29967C0.0319599 1.77531 0.177192 1.34859 0.458578 1.01951C0.776186 0.64807 1.14106 0.46764 1.55321 0.478223C1.96533 0.488837 2.32115 0.669267 2.62066 1.01951L10.5283 10.2674C10.6884 10.4547 10.8033 10.6529 10.873 10.8621C10.9427 11.0713 10.9775 11.2945 10.9775 11.5317C10.9775 11.7689 10.9427 11.9921 10.873 12.2013C10.8033 12.4105 10.6884 12.6088 10.5283 12.796L2.64784 22.0121C2.34833 22.3624 1.98798 22.5322 1.56678 22.5216C1.14559 22.511 0.776186 22.3412 0.458578 22.0121Z" fill="#010523"/>
</svg>
