<svg width="60" height="60" viewBox="0 0 60 60" fill="none" xmlns="http://www.w3.org/2000/svg">
<g id="photo_library_FILL0_wght500_GRAD0_opsz40 1">
<path id="Vector" d="M24.577 35.6744H44.3758C44.8618 35.6744 45.2198 35.457 45.45 35.0222C45.6801 34.5875 45.6397 34.1663 45.3288 33.7587L39.5801 26.053C39.3257 25.7221 39.005 25.5567 38.618 25.5567C38.231 25.5567 37.9131 25.7221 37.6643 26.053L32.4089 32.9245L29.2468 28.8289C28.9893 28.5146 28.6703 28.3643 28.2898 28.3782C27.9094 28.3921 27.5948 28.5562 27.346 28.8705L23.624 33.7587C23.3064 34.1692 23.2596 34.5911 23.4835 35.0244C23.7075 35.4577 24.072 35.6744 24.577 35.6744ZM17.9333 46.8013C16.6419 46.8013 15.53 46.335 14.5975 45.4025C13.665 44.47 13.1987 43.3581 13.1987 42.0667V9.03216C13.1987 7.73804 13.665 6.62374 14.5975 5.68929C15.53 4.75483 16.6419 4.2876 17.9333 4.2876H50.9678C52.262 4.2876 53.3763 4.75483 54.3107 5.68929C55.2452 6.62374 55.7124 7.73804 55.7124 9.03216V42.0667C55.7124 43.3581 55.2452 44.47 54.3107 45.4025C53.3763 46.335 52.262 46.8013 50.9678 46.8013H17.9333ZM17.9333 42.0667H50.9678V9.03216H17.9333V42.0667ZM9.0321 55.7125C7.73797 55.7125 6.62368 55.2452 5.68922 54.3108C4.75477 53.3763 4.28754 52.262 4.28754 50.9679V15.5661C4.28754 14.8994 4.51612 14.3382 4.97329 13.8825C5.43045 13.4267 5.99508 13.1988 6.66716 13.1988C7.3392 13.1988 7.90137 13.4267 8.35366 13.8825C8.80595 14.3382 9.0321 14.8994 9.0321 15.5661V50.9679H44.4339C45.1006 50.9679 45.6618 51.1965 46.1175 51.6537C46.5733 52.1108 46.8012 52.6754 46.8012 53.3475C46.8012 54.0196 46.5733 54.5817 46.1175 55.034C45.6618 55.4863 45.1006 55.7125 44.4339 55.7125H9.0321Z" fill="black"/>
</g>
</svg>
