<svg width="46" height="45" viewBox="0 0 46 45" fill="none" xmlns="http://www.w3.org/2000/svg">
<path id="Vector" d="M5.71601 40.24H14.8782V24.6056H31.1109V40.24H40.273V16.5833L22.9945 4.7599L5.71601 16.5866V40.24ZM5.71601 45C4.28159 45 3.05366 44.5339 2.03222 43.6017C1.01074 42.6696 0.5 41.549 0.5 40.24V16.5833C0.5 15.8303 0.685449 15.1169 1.05635 14.4431C1.42724 13.7693 1.93982 13.2137 2.59408 12.7763L19.8561 0.957974C20.3368 0.642 20.8416 0.403335 21.3705 0.241976C21.8993 0.0806585 22.4439 0 23.0044 0C23.565 0 24.1073 0.0806585 24.6313 0.241976C25.1555 0.403335 25.656 0.642 26.1329 0.957974L43.395 12.7763C44.0519 13.2173 44.567 13.7742 44.9401 14.4468C45.3134 15.1194 45.5 15.8315 45.5 16.5833V40.24C45.5 41.549 44.9882 42.6696 43.9646 43.6017C42.941 44.5339 41.7105 45 40.273 45H26.098V29.1802H19.891V45H5.71601Z" fill="#D5A530"/>
</svg>
